<?xml version="1.0" standalone="no"?>
<!DOCTYPE svg PUBLIC "-//W3C//DTD SVG 20010904//EN"
 "http://www.w3.org/TR/2001/REC-SVG-20010904/DTD/svg10.dtd">
<svg version="1.0" xmlns="http://www.w3.org/2000/svg"
 width="300.000000pt" height="300.000000pt" viewBox="0 0 300.000000 300.000000"
 preserveAspectRatio="xMidYMid meet">
<metadata>
Created by potrace 1.10, written by Peter Selinger 2001-2011
</metadata>
<g transform="translate(0.000000,300.000000) scale(0.100000,-0.100000)"
fill="#18d100" stroke="none">
<path d="M1423 2953 c-5 -12 -7 -12 -14 -1 -5 8 -9 8 -9 2 0 -8 -28 -11 -82
-11 -99 0 -139 -4 -154 -15 -6 -4 -20 -6 -31 -4 -13 3 -29 -5 -42 -20 -16 -18
-27 -23 -45 -18 -18 4 -30 -1 -50 -23 -14 -15 -26 -22 -26 -15 0 7 -5 10 -10
7 -6 -4 -8 -10 -5 -15 3 -5 -11 -12 -32 -16 -21 -3 -43 -13 -50 -21 -6 -8 -18
-13 -25 -11 -7 3 -23 -3 -36 -13 -13 -10 -31 -15 -40 -12 -15 6 -15 5 -3 -10
12 -15 9 -21 -11 -18 -4 0 -19 -4 -34 -9 -17 -7 -24 -15 -20 -25 3 -10 -1 -15
-13 -15 -10 0 -27 -8 -39 -17 -45 -38 -66 -53 -75 -53 -4 0 -5 -5 -2 -11 4 -6
14 -8 22 -5 8 3 12 2 9 -3 -3 -5 -18 -12 -33 -16 -41 -10 -56 -25 -42 -41 9
-11 8 -14 -2 -14 -17 -1 -76 -55 -108 -99 -17 -25 -20 -35 -11 -41 18 -11 3
-30 -23 -30 -18 0 -19 -2 -7 -10 12 -8 11 -10 -6 -10 -23 0 -41 -29 -25 -39
14 -9 -3 -33 -20 -29 -9 2 -14 -5 -13 -19 0 -14 -5 -23 -14 -23 -9 0 -13 -3
-9 -6 3 -4 0 -19 -9 -35 -8 -17 -10 -29 -4 -29 5 0 10 -4 10 -10 0 -5 -6 -10
-14 -10 -17 0 -46 -37 -46 -58 0 -7 5 -10 12 -6 7 5 8 3 3 -6 -4 -7 -8 -22 -9
-33 -1 -11 -10 -25 -21 -31 -11 -6 -22 -12 -25 -14 -2 -2 2 -7 10 -12 11 -7
12 -17 0 -65 -7 -31 -17 -58 -22 -61 -4 -3 -3 -14 3 -25 5 -11 7 -30 3 -42
-11 -33 -8 -171 4 -175 6 -2 5 -13 -4 -30 -18 -34 -18 -42 0 -42 11 0 15 -14
15 -57 0 -63 4 -100 13 -123 7 -16 18 -66 20 -87 1 -7 5 -13 10 -13 4 0 8 -9
8 -20 0 -11 5 -20 10 -20 6 0 10 -13 10 -29 0 -16 3 -31 8 -33 4 -1 22 -33 41
-70 19 -37 45 -78 58 -92 12 -14 23 -31 23 -38 0 -16 66 -95 130 -156 44 -42
59 -53 189 -143 70 -47 222 -185 218 -196 -1 -4 -17 -6 -34 -4 -18 1 -59 -3
-90 -9 -67 -13 -232 -91 -259 -122 -14 -16 1 -10 56 20 111 60 168 80 266 91
86 9 90 9 127 -15 20 -13 37 -25 37 -27 0 -1 -46 -3 -103 -3 -111 -2 -242 -35
-289 -74 -20 -16 -14 -15 40 6 35 14 95 32 134 40 84 18 239 15 246 -3 3 -10
-22 -13 -101 -13 -71 0 -122 -5 -156 -17 -71 -23 -174 -75 -179 -91 -2 -8 28
3 69 23 108 55 160 68 273 67 129 -1 146 -17 26 -25 -73 -5 -104 -12 -160 -38
-38 -17 -79 -43 -92 -57 l-23 -25 25 13 c14 7 36 21 50 30 56 38 138 60 229
60 86 0 89 -1 150 -40 55 -36 62 -44 57 -65 -5 -20 3 -32 42 -69 102 -95 123
-108 167 -102 53 8 74 8 111 1 41 -9 71 8 159 89 56 52 68 67 58 77 -7 7 -13
16 -13 20 0 4 29 26 65 48 63 40 66 41 154 41 101 0 174 -21 249 -72 23 -16
42 -24 42 -19 0 15 -74 61 -134 83 -27 11 -87 22 -133 25 -95 7 -111 22 -25
25 143 5 217 -9 317 -61 91 -47 92 -47 76 -27 -20 23 -113 70 -180 90 -34 10
-92 16 -153 16 -84 0 -98 2 -98 16 0 15 13 16 123 12 116 -6 214 -27 270 -59
28 -15 31 -4 5 13 -59 39 -245 75 -325 64 -52 -7 -55 3 -8 28 29 16 48 18 122
13 49 -3 106 -13 128 -22 82 -35 130 -58 168 -82 23 -15 37 -19 35 -11 -7 22
-128 87 -213 114 -49 16 -98 24 -127 23 -26 -2 -50 0 -53 3 -3 3 30 36 72 74
43 38 110 98 148 134 154 142 198 180 207 180 5 0 6 5 3 11 -4 6 2 13 14 16
12 3 21 10 21 17 0 6 9 17 20 24 11 7 20 19 20 27 0 8 5 15 10 15 6 0 10 7 10
15 0 8 7 15 16 15 10 0 14 6 10 15 -3 8 -2 15 2 15 4 0 13 9 20 21 11 17 11
23 0 36 -11 14 -10 15 7 10 23 -8 58 11 38 20 -19 7 -16 34 2 27 8 -4 15 -2
15 4 0 6 3 19 6 29 5 15 4 15 -5 3 -6 -8 -11 -10 -11 -5 0 6 9 19 21 28 11 10
18 25 15 33 -3 8 1 14 9 14 8 0 15 7 15 15 0 8 -6 15 -12 15 -7 0 -1 8 13 18
23 15 24 19 13 42 -11 20 -11 27 2 41 15 17 22 78 10 97 -5 8 -2 10 8 6 9 -3
16 -1 16 5 0 6 -4 11 -10 11 -16 0 -12 37 5 44 8 3 15 12 15 20 0 7 -7 16 -15
20 -20 7 -19 32 1 40 12 5 14 14 9 37 -5 20 -3 34 5 39 8 5 7 11 -4 23 -9 8
-16 24 -16 34 0 11 -6 25 -12 32 -11 10 -10 11 4 6 14 -6 15 -2 8 28 -5 23 -4
39 3 46 8 8 8 11 0 11 -10 0 -25 75 -28 138 0 13 -7 27 -14 32 -9 5 -11 17 -7
36 6 23 5 27 -5 17 -18 -18 -32 -16 -21 3 13 23 2 73 -18 79 -9 3 -22 16 -28
30 -9 20 -9 23 3 18 8 -3 15 0 15 6 0 6 -6 11 -14 11 -7 0 -16 9 -19 20 -3 11
-13 20 -24 20 -13 0 -15 2 -5 9 10 6 5 17 -23 47 -20 21 -32 40 -26 42 19 6
12 22 -10 22 -11 0 -17 5 -14 10 3 6 1 10 -5 10 -6 0 -8 5 -5 10 3 6 1 10 -4
10 -6 0 -11 7 -11 16 0 10 -5 14 -16 10 -9 -4 -13 -2 -8 5 4 6 3 14 -2 18 -5
3 -17 19 -27 34 -10 15 -29 33 -42 39 -13 6 -26 19 -29 31 -3 14 -10 18 -22
13 -15 -6 -15 -4 -3 10 12 15 11 16 -10 9 -14 -4 -21 -3 -18 2 7 10 -36 53
-52 53 -5 0 -22 14 -38 30 -15 17 -32 30 -36 30 -5 0 -15 7 -24 15 -10 10 -23
13 -36 9 -18 -6 -20 -5 -10 8 10 11 10 17 1 26 -16 16 -28 15 -28 -3 0 -8 -4
-15 -9 -15 -17 0 -23 20 -11 35 10 12 9 15 -4 15 -9 0 -16 -4 -16 -10 0 -5 -4
-10 -10 -10 -5 0 -10 7 -10 15 0 9 -9 15 -25 15 -14 0 -25 4 -25 9 0 15 -32
22 -46 10 -14 -11 -15 -10 -26 30 -3 11 -8 10 -22 -4 -16 -17 -17 -17 -23 4
-6 23 -19 28 -26 9 -4 -10 -8 -9 -16 2 -6 8 -27 15 -48 16 -20 1 -39 6 -41 12
-2 7 -24 8 -59 5 -41 -5 -54 -3 -49 5 9 15 1 15 -24 2 -13 -7 -21 -6 -30 5 -8
10 -17 12 -28 6 -8 -5 -27 -5 -41 -1 -55 18 -112 19 -118 3z m217 -54 c91 -11
286 -54 304 -68 6 -4 34 -16 61 -26 28 -10 61 -25 75 -34 14 -10 38 -22 53
-29 100 -43 318 -247 403 -377 160 -246 200 -371 218 -685 5 -102 -25 -307
-60 -410 -15 -43 -91 -203 -106 -225 -80 -111 -228 -268 -279 -295 -16 -9 -19
-5 -24 27 -13 74 -27 105 -56 122 -21 11 -29 24 -29 44 0 68 -54 135 -133 165
l-47 18 30 29 30 29 26 -25 c14 -13 37 -42 50 -65 13 -22 35 -47 49 -54 21
-11 27 -11 43 4 22 19 52 105 52 145 0 36 -42 75 -105 96 -85 28 -118 56 -160
136 -73 141 -132 216 -208 265 -107 69 -215 91 -297 58 -27 -11 -44 -13 -53
-7 -23 19 -63 22 -128 12 -76 -12 -155 -49 -214 -101 -49 -43 -138 -169 -148
-209 -9 -36 -73 -116 -105 -132 -15 -8 -49 -20 -76 -28 -53 -15 -96 -57 -96
-93 0 -31 30 -118 46 -136 12 -12 14 -12 14 6 0 12 -9 47 -20 79 l-20 59 20
21 c12 12 49 31 83 41 80 24 130 70 172 155 99 205 232 308 399 312 77 2 88
-10 68 -76 -8 -28 -33 -75 -55 -105 -22 -29 -38 -54 -35 -57 2 -2 24 9 48 25
25 17 50 30 56 30 17 0 4 -49 -27 -102 -23 -39 -26 -52 -19 -80 4 -18 18 -86
30 -151 19 -99 20 -125 10 -165 -8 -34 -8 -56 -1 -76 6 -15 11 -43 11 -62 0
-19 4 -34 9 -34 15 0 33 121 26 180 -5 43 0 94 21 203 l27 145 -31 51 c-18 28
-32 62 -32 76 l0 24 57 -34 c31 -19 59 -33 61 -31 2 2 -13 26 -34 53 -39 51
-58 88 -69 140 -6 30 -4 33 26 41 18 4 62 4 98 -1 149 -20 256 -114 357 -317
19 -38 48 -80 64 -94 29 -24 127 -66 154 -66 23 0 49 -38 43 -62 -29 -120 -48
-153 -61 -104 -16 66 -183 238 -340 350 -82 58 -121 68 -51 13 96 -77 182
-157 209 -195 29 -41 29 -42 10 -57 -50 -40 -80 -49 -154 -50 -96 -1 -116 -15
-170 -118 -23 -42 -44 -77 -48 -77 -4 0 -13 -4 -21 -9 -11 -7 -9 -15 11 -42
14 -19 48 -75 77 -126 43 -76 52 -99 49 -133 -2 -22 -7 -41 -13 -43 -5 -1 -27
24 -49 56 -43 65 -58 70 -27 8 12 -22 21 -49 21 -60 0 -18 -5 -19 -54 -14 -31
3 -61 1 -72 -5 -16 -10 -12 -11 25 -12 27 0 52 -7 63 -17 24 -21 23 -33 -3
-33 -23 0 -79 -51 -79 -72 0 -7 -13 -28 -28 -46 l-28 -33 -13 60 c-7 34 -17
61 -21 61 -4 0 -10 -22 -14 -50 -4 -27 -11 -52 -15 -55 -5 -3 -23 16 -39 42
-43 68 -59 83 -92 90 -35 6 -36 10 -13 35 11 13 31 18 67 19 45 0 48 2 26 10
-14 6 -47 8 -73 5 -59 -6 -67 6 -37 64 32 62 17 60 -25 -4 -20 -31 -41 -56
-46 -56 -4 0 -11 15 -14 33 -8 40 9 82 86 209 l60 99 -21 17 c-12 10 -38 49
-58 87 -49 93 -86 118 -161 110 -49 -6 -63 -3 -111 22 -30 15 -56 35 -58 44
-5 26 150 183 248 252 13 9 21 19 18 22 -8 9 -176 -115 -255 -189 -80 -75
-157 -168 -173 -212 -24 -63 17 -30 76 63 15 23 33 44 41 47 7 3 27 -10 44
-29 18 -19 37 -32 43 -28 6 3 8 3 4 -2 -5 -5 -22 -10 -39 -12 -34 -3 -110 -52
-133 -85 -9 -12 -19 -44 -22 -71 -4 -27 -13 -51 -20 -54 -35 -13 113 -191 218
-263 28 -19 40 -36 51 -75 12 -42 12 -52 1 -66 -8 -8 -14 -23 -14 -32 0 -9 -4
-17 -8 -17 -34 0 -199 145 -266 233 -26 34 -27 39 -17 87 6 28 11 65 11 82 0
50 -27 16 -41 -50 -17 -84 -18 -86 -66 -54 -179 118 -347 379 -407 632 -8 36
-20 124 -27 197 -25 296 41 537 223 804 98 145 255 285 412 369 190 101 326
145 480 154 55 4 102 8 104 11 5 4 63 0 192 -16z m-125 -1309 c3 -6 -1 -13
-10 -16 -19 -8 -30 0 -20 15 8 14 22 14 30 1z m7 -186 c9 -19 9 -39 0 -82 -17
-83 -28 -84 -42 -4 -8 52 -9 76 0 91 14 28 28 26 42 -5z m-376 -340 c-3 -44
20 -61 52 -38 26 18 49 9 31 -12 -6 -8 -29 -14 -50 -14 -34 0 -42 5 -59 33
-17 26 -20 28 -20 11 0 -45 74 -75 122 -50 23 12 29 12 39 0 10 -12 8 -18 -7
-29 -66 -50 -172 -15 -203 68 -19 49 -15 56 37 60 26 2 50 4 54 5 4 1 6 -14 4
-34z m782 26 c28 0 32 -3 32 -25 0 -42 -28 -83 -70 -105 -47 -24 -81 -25 -120
-5 -32 17 -35 22 -21 44 7 11 13 10 34 -4 19 -12 36 -15 59 -10 45 10 58 23
57 54 -1 20 -2 22 -6 6 -6 -27 -31 -45 -64 -45 -38 0 -59 9 -59 26 0 18 18 18
36 0 7 -8 23 -12 33 -9 24 6 37 41 22 56 -18 18 -12 30 12 23 12 -3 37 -6 55
-6z m-907 -42 c16 -61 75 -115 134 -123 62 -10 57 -25 -8 -25 -43 0 -63 6
-100 31 -26 17 -54 40 -62 52 -8 11 -17 18 -21 14 -10 -10 53 -83 92 -108 32
-19 45 -21 135 -17 95 5 99 4 99 -16 0 -12 -14 -41 -31 -66 -73 -109 -83 -149
-48 -194 12 -15 20 -29 18 -31 -13 -12 -113 -45 -119 -38 -3 4 -12 31 -19 59
l-12 52 38 50 c21 27 53 68 71 91 51 63 26 49 -63 -34 -44 -41 -85 -75 -91
-75 -20 0 -166 143 -181 177 -15 38 -17 94 -3 143 10 35 42 62 105 87 47 19
53 16 66 -29z m194 25 c18 -14 18 -15 2 -9 -10 3 -23 6 -28 6 -5 0 -9 5 -9 10
0 14 12 12 35 -7z m892 -25 c35 -26 44 -39 54 -82 14 -63 1 -121 -38 -167 -29
-34 -140 -129 -151 -129 -4 0 -46 36 -95 80 -124 113 -125 110 -10 -37 l62
-80 -14 -39 c-8 -21 -14 -47 -15 -56 0 -23 -7 -23 -66 3 -62 27 -58 23 -39 53
29 44 22 85 -33 170 -27 43 -48 86 -45 95 3 14 21 16 115 16 l110 0 55 59 c63
67 63 90 0 28 -23 -22 -55 -46 -70 -51 -36 -14 -117 -14 -117 -1 0 6 10 10 23
10 46 1 104 37 131 82 14 25 26 55 26 67 0 21 3 23 37 16 20 -4 56 -20 80 -37z
m-797 -113 c6 -8 9 -23 5 -34 -6 -20 -7 -20 -33 -4 -15 9 -29 18 -31 20 -7 5
21 33 34 33 7 0 18 -7 25 -15z m444 -11 c3 -9 -1 -14 -12 -14 -10 0 -23 -5
-30 -12 -9 -9 -13 -7 -18 7 -5 12 -1 22 10 31 20 14 42 9 50 -12z m487 -125
l16 -81 -47 -57 c-61 -73 -155 -161 -203 -190 -21 -13 -39 -22 -40 -20 -34 62
-35 67 -23 112 10 40 22 55 91 112 84 69 159 152 170 185 11 36 20 21 36 -61z
m-952 -253 c14 -17 -1 -30 -37 -32 -30 -1 -38 14 -16 31 24 18 39 18 53 1z
m472 -5 c11 -10 17 -21 12 -24 -14 -8 -53 12 -53 28 0 20 17 19 41 -4z m-417
-91 c48 -23 126 -117 126 -152 0 -21 -10 -28 -65 -47 -64 -23 -75 -23 -167 -5
-16 3 -28 10 -28 15 0 4 15 6 33 2 29 -6 31 -5 18 10 -7 10 -28 17 -46 17 -40
0 -65 9 -65 22 0 9 22 7 72 -8 13 -4 16 -1 12 9 -3 9 -29 18 -66 23 -37 5 -63
15 -66 23 -4 11 5 12 43 7 26 -4 54 -10 61 -13 8 -3 14 1 14 10 0 11 -15 17
-57 22 -75 8 -83 11 -83 29 0 16 21 15 98 -4 28 -7 33 -6 30 8 -2 13 -16 18
-61 20 -59 3 -66 8 -44 31 19 20 188 7 241 -19z m565 17 c16 -20 3 -27 -49
-27 -30 0 -52 -6 -60 -15 -19 -23 -10 -25 55 -9 75 17 75 17 75 -1 0 -19 -8
-22 -82 -30 -37 -4 -58 -11 -62 -22 -5 -12 -1 -14 16 -10 13 4 43 9 68 13 69
10 35 -18 -37 -31 -31 -6 -58 -16 -61 -24 -3 -9 2 -11 14 -8 11 4 33 9 49 13
27 7 29 6 16 -9 -7 -10 -28 -17 -46 -17 -40 0 -65 -9 -65 -22 0 -6 12 -8 30
-5 17 4 30 2 30 -2 0 -5 -12 -12 -27 -15 -94 -18 -113 -17 -172 5 -54 19 -61
25 -61 49 0 34 70 124 113 146 60 32 235 45 256 21z m-293 -253 c103 -31 106
-43 27 -113 -62 -56 -70 -58 -112 -36 -26 13 -33 13 -60 -1 -41 -21 -57 -14
-121 51 -64 65 -62 69 42 101 97 29 125 29 224 -2z"/>
<path d="M649 1951 c-79 -43 -112 -113 -113 -236 -1 -60 3 -76 26 -110 16 -23
33 -71 42 -114 14 -69 41 -129 52 -118 3 3 -2 43 -11 89 -9 45 -19 93 -21 105
-2 13 -18 38 -35 58 -30 34 -31 36 -24 107 8 86 33 150 68 173 14 9 57 21 95
27 l69 10 129 -67 c71 -37 140 -74 152 -82 30 -19 41 -8 16 15 -25 23 -68 49
-179 107 -77 41 -100 48 -160 51 -56 4 -77 0 -106 -15z"/>
<path d="M2175 1963 c-11 -3 -22 -8 -25 -12 -3 -3 -27 -17 -55 -31 -27 -13
-52 -27 -55 -30 -3 -4 -21 -12 -40 -20 -51 -20 -110 -70 -110 -93 0 -20 0 -20
23 0 12 11 84 53 159 92 132 70 138 72 190 66 126 -15 166 -59 175 -196 5 -72
4 -79 -22 -113 -20 -26 -33 -63 -47 -131 -21 -107 -33 -145 -47 -145 -5 0 -11
9 -14 20 -3 14 -14 20 -32 20 -28 0 -55 20 -55 41 0 19 54 99 65 96 5 -2 14
-18 19 -35 14 -51 26 -37 26 31 1 66 18 127 44 156 10 11 16 36 16 70 0 47 -4
56 -40 94 l-39 42 -1 -31 c0 -48 -28 -130 -56 -163 -14 -16 -50 -42 -81 -57
l-56 -28 29 -23 c16 -13 32 -23 37 -23 20 0 3 -27 -25 -39 -32 -14 -33 -14 -8
-18 36 -7 42 -17 29 -46 -16 -34 9 -68 78 -104 50 -26 55 -27 80 -13 36 20 49
49 69 146 11 50 27 94 45 121 32 46 34 69 18 176 -20 129 -87 188 -210 186
-35 -1 -73 -4 -84 -6z m178 -212 c2 -10 -8 -45 -24 -77 -16 -32 -29 -68 -29
-81 0 -14 -11 -28 -30 -40 -16 -9 -30 -20 -30 -24 0 -4 -7 -10 -16 -13 -13 -5
-15 -2 -11 15 3 12 0 30 -6 40 -10 17 -6 25 38 67 28 26 59 66 69 90 21 46 31
52 39 23z"/>
<path d="M2098 1831 c-144 -81 -153 -91 -125 -140 12 -20 31 -49 43 -66 12
-16 32 -50 45 -75 39 -73 55 -92 76 -87 16 4 15 6 -4 12 -25 8 -30 34 -10 54
10 11 8 12 -10 6 -21 -6 -22 -4 -17 24 5 24 3 31 -9 31 -10 0 -14 6 -11 14 3
7 -1 20 -8 27 -39 41 -66 88 -62 105 3 11 50 46 105 79 92 55 134 87 113 84
-5 -1 -62 -31 -126 -68z"/>
<path d="M666 1858 c-59 -64 -71 -134 -31 -188 31 -43 45 -90 45 -158 0 -56
14 -63 25 -12 4 17 10 30 14 30 12 0 36 -31 55 -67 10 -21 24 -33 36 -33 48 0
-8 87 -72 111 -20 8 -29 20 -34 46 -4 20 -17 54 -30 77 -23 40 -32 110 -16
120 5 3 19 -16 31 -42 27 -57 44 -78 93 -115 34 -25 36 -30 26 -52 -6 -13 -8
-35 -4 -49 5 -22 12 -26 44 -26 l37 1 -37 20 c-21 11 -38 23 -38 27 0 4 16 16
35 26 19 11 35 23 35 28 0 5 -16 16 -35 23 -49 21 -105 74 -123 115 -8 19 -18
61 -21 92 l-6 57 -29 -31z"/>
<path d="M790 1885 c0 -2 45 -32 101 -66 64 -39 104 -71 110 -86 12 -31 11
-33 -3 -33 -7 0 -24 -17 -38 -37 -14 -20 -35 -47 -47 -59 -23 -23 -32 -61 -13
-49 6 4 8 10 5 14 -7 12 32 44 43 37 12 -7 65 51 88 95 15 30 15 33 -3 49 -18
18 -225 140 -237 140 -3 0 -6 -2 -6 -5z"/>
<path d="M1921 1747 c-11 -14 -5 -27 11 -27 5 0 6 5 3 10 -3 6 -1 10 4 10 6 0
11 5 11 10 0 14 -16 12 -29 -3z"/>
<path d="M1285 1644 c-27 -13 -39 -21 -25 -17 38 9 107 42 90 42 -8 0 -37 -11
-65 -25z"/>
<path d="M1690 1649 c68 -32 90 -39 90 -31 0 8 -69 37 -110 46 -14 3 -5 -3 20
-15z"/>
<path d="M917 1555 c-9 -19 -13 -35 -8 -35 7 0 15 14 39 63 2 4 0 7 -5 7 -5 0
-17 -16 -26 -35z"/>
<path d="M1730 1450 c0 -15 66 -185 92 -237 12 -24 27 -43 35 -43 17 0 17 1
-13 73 -67 160 -114 246 -114 207z"/>
<path d="M1250 1423 c-44 -96 -100 -228 -100 -239 0 -26 20 -14 38 24 25 47
92 219 92 232 0 20 -17 10 -30 -17z"/>
<path d="M1701 1408 c-6 -76 -5 -168 1 -168 4 0 4 -15 2 -32 -3 -18 -1 -44 5
-58 7 -19 10 1 10 85 0 106 -14 234 -18 173z"/>
<path d="M730 1406 c0 -9 -8 -16 -19 -16 -11 0 -23 -4 -26 -10 -8 -14 21 -13
62 2 31 11 45 28 24 28 -5 0 -16 3 -25 6 -11 4 -16 1 -16 -10z"/>
<path d="M1297 1329 c-10 -131 -8 -210 3 -182 10 24 17 260 8 268 -3 3 -8 -36
-11 -86z"/>
<path d="M1204 1161 c3 -5 16 -11 28 -14 22 -6 22 -5 4 8 -22 17 -40 20 -32 6z"/>
<path d="M1310 1095 c0 -10 112 -156 116 -152 2 2 -15 38 -38 80 -28 50 -49
77 -60 77 -10 0 -18 -2 -18 -5z"/>
<path d="M1620 1024 c-23 -41 -40 -77 -38 -80 5 -4 118 141 118 151 0 3 -9 5
-19 5 -14 0 -32 -22 -61 -76z"/>
<path d="M1489 788 c-2 -104 3 -293 7 -297 2 -2 4 54 4 125 0 71 3 153 6 182
5 36 3 52 -5 52 -7 0 -11 -23 -12 -62z"/>
<path d="M790 758 c0 -25 14 -50 58 -103 53 -63 162 -165 162 -151 0 3 -31 40
-69 82 -38 43 -86 106 -107 141 -20 35 -38 63 -40 63 -2 0 -4 -15 -4 -32z"/>
<path d="M910 1007 c0 -19 31 -65 66 -97 21 -19 32 -26 24 -15 -8 11 -20 25
-26 30 -6 6 -23 28 -38 50 -14 22 -26 36 -26 32z"/>
<path d="M884 875 c8 -21 69 -105 74 -100 3 2 -65 106 -76 115 -3 3 -2 -4 2
-15z"/>
<path d="M2076 983 c-7 -22 -71 -91 -106 -115 -19 -13 -20 -16 -5 -11 40 13
135 108 135 135 0 15 -19 8 -24 -9z"/>
<path d="M2066 801 c-38 -52 -41 -59 -16 -36 31 30 76 93 69 99 -2 1 -26 -27
-53 -63z"/>
<path d="M2163 704 c-28 -43 -76 -106 -105 -138 -77 -86 -24 -51 61 40 79 84
104 124 99 157 -2 16 -15 3 -55 -59z"/>
</g>
</svg>
