 <svg version="1.0" xmlns="http://www.w3.org/2000/svg"  width="300.000000pt" height="300.000000pt" viewBox="0 0 300.000000 300.000000"  preserveAspectRatio="xMidYMid meet">  <g transform="translate(0.000000,300.000000) scale(0.100000,-0.100000)" fill="#000000" stroke="none"> <path d="M0 1500 l0 -1500 1500 0 1500 0 0 1500 0 1500 -1500 0 -1500 0 0 -1500z m1493 1457 c-3 -5 4 -4 16 2 17 10 21 9 21 -4 0 -15 32 -16 46 -2 11 11 26 8 19 -3 -3 -6 1 -7 9 -4 9 3 16 1 16 -5 0 -8 5 -9 19 -1 11 5 30 10 43 9 23 -1 23 -1 -2 -10 -23 -8 -22 -8 8 -5 17 1 32 -2 32 -8 0 -6 5 -5 12 2 15 15 42 16 32 0 -5 -8 0 -9 14 -6 12 4 22 3 22 -2 0 -4 7 -11 16 -14 8 -3 12 -2 9 4 -13 21 23 9 39 -12 12 -16 16 -18 12 -5 -5 16 3 21 21 15 4 -2 8 -7 9 -13 3 -24 5 -26 20 -11 17 18 39 22 29 6 -4 -6 -4 -18 -1 -27 5 -11 10 -12 19 -5 7 6 23 8 36 5 17 -4 19 -8 9 -15 -9 -6 -3 -8 17 -6 23 2 30 -1 30 -14 0 -10 5 -17 10 -15 6 1 9 5 7 10 -1 4 8 7 19 7 18 0 19 -3 9 -15 -12 -15 -6 -35 11 -35 5 0 9 7 9 15 0 18 16 19 34 3 12 -11 10 -15 -8 -26 -21 -13 -20 -13 4 -8 29 6 45 -3 45 -23 0 -8 7 -16 15 -18 13 -4 13 -3 0 6 -12 9 -11 11 7 11 13 0 24 -8 28 -19 3 -11 13 -22 21 -25 8 -3 12 -11 9 -16 -4 -7 3 -9 22 -5 15 3 22 2 15 -1 -10 -5 -7 -10 10 -18 12 -7 22 -18 20 -25 -2 -9 5 -10 20 -6 19 6 21 5 11 -6 -7 -7 -13 -18 -13 -23 0 -6 4 -5 9 3 10 16 31 6 31 -15 0 -8 6 -14 13 -14 7 0 31 -20 54 -45 29 -32 37 -47 29 -56 -8 -8 -5 -10 11 -4 18 5 22 3 17 -9 -4 -10 -1 -16 7 -16 11 0 11 -3 -1 -10 -12 -8 -10 -10 10 -11 14 0 19 -3 13 -6 -21 -8 -15 -22 7 -16 21 6 28 -13 8 -19 -8 -3 -2 -14 16 -31 16 -15 25 -31 20 -38 -4 -7 -3 -9 4 -5 6 3 13 2 17 -4 3 -5 0 -10 -7 -11 -7 0 -3 -4 10 -9 12 -5 22 -16 22 -25 0 -8 6 -15 14 -15 8 0 18 -5 22 -12 5 -7 1 -9 -12 -6 -14 4 -20 0 -20 -12 0 -11 6 -16 15 -12 9 3 12 1 7 -6 -4 -7 -2 -12 4 -12 6 0 8 -5 4 -12 -5 -9 -2 -9 9 1 9 7 17 12 18 10 8 -57 6 -81 -7 -86 -13 -5 -13 -7 -2 -14 17 -12 31 -11 23 0 -3 5 -1 12 5 16 13 8 13 -6 0 -40 -7 -17 -7 -24 0 -20 6 3 17 0 25 -9 14 -13 13 -16 -7 -30 -20 -14 -20 -16 -4 -16 14 0 17 -6 14 -25 -3 -14 -1 -25 5 -25 5 0 7 -13 5 -30 -3 -22 0 -30 10 -30 12 0 11 -4 -4 -22 -10 -12 -13 -18 -6 -14 12 7 17 -16 14 -78 -1 -17 6 -35 16 -42 10 -7 13 -16 8 -21 -5 -4 -11 -2 -13 5 -3 6 -9 12 -15 12 -7 0 -7 -4 0 -12 6 -7 13 -30 17 -50 6 -32 4 -38 -10 -38 -12 0 -16 -6 -12 -19 3 -12 -1 -22 -9 -25 -11 -4 -14 10 -15 72 -1 42 -1 81 0 86 5 26 -34 253 -55 323 -14 46 -22 88 -18 95 4 7 3 8 -5 4 -7 -5 -22 15 -41 56 -16 35 -35 72 -42 82 -7 11 -34 52 -60 92 -60 90 -235 264 -331 326 -39 27 -76 48 -80 48 -5 0 -28 13 -52 30 -24 16 -52 31 -62 33 -10 2 -29 9 -43 14 -14 6 -28 11 -32 12 -4 1 -25 8 -45 15 -21 7 -59 16 -85 20 -27 4 -48 11 -48 16 0 4 -19 9 -42 9 -24 1 -59 3 -78 6 -19 3 -57 8 -85 11 -27 2 -57 5 -65 6 -41 5 -319 -29 -334 -41 -6 -5 -27 -12 -46 -16 -19 -4 -67 -22 -106 -40 -39 -18 -80 -36 -92 -39 -12 -4 -22 -11 -22 -16 0 -5 -13 -11 -29 -15 -16 -3 -37 -15 -47 -26 -9 -10 -21 -19 -26 -19 -13 0 -117 -78 -160 -119 -20 -20 -56 -55 -80 -77 -53 -51 -88 -95 -88 -111 0 -7 -4 -13 -10 -13 -5 0 -10 -5 -10 -12 0 -6 -9 -21 -19 -32 -26 -28 -94 -162 -131 -257 -86 -224 -98 -462 -35 -734 34 -150 134 -338 256 -485 40 -48 197 -180 214 -180 3 0 5 12 4 27 -2 33 19 140 33 166 6 12 17 16 34 13 22 -4 25 -2 21 14 -7 28 11 102 31 123 41 45 97 74 145 73 26 -1 47 1 47 4 0 3 -24 21 -53 41 -37 25 -51 41 -49 55 3 13 -7 7 -33 -21 -44 -48 -95 -120 -95 -133 0 -16 -27 -21 -43 -9 -16 12 -57 122 -57 151 0 26 44 64 90 76 99 27 142 62 187 155 36 73 55 106 69 120 5 5 26 30 46 55 40 51 133 119 172 126 14 2 37 9 51 14 38 14 100 12 141 -5 19 -8 35 -15 37 -17 1 -1 13 5 27 15 50 35 180 14 276 -45 90 -54 134 -106 204 -243 23 -44 49 -90 59 -102 24 -29 75 -56 134 -73 33 -9 56 -23 72 -44 l24 -32 -19 -62 c-24 -77 -37 -102 -53 -102 -13 0 -62 56 -94 110 -24 39 -63 76 -63 59 0 -13 -58 -69 -71 -69 -5 0 -9 -4 -9 -8 0 -5 13 -9 30 -10 31 -1 77 -23 118 -57 32 -26 52 -74 52 -123 0 -35 2 -39 23 -35 17 3 26 -2 34 -19 10 -20 34 -123 36 -155 0 -8 5 -8 18 0 19 12 202 197 234 237 44 54 113 184 156 292 12 31 26 55 31 52 4 -3 8 -1 8 5 0 5 -6 11 -12 14 -10 4 -10 7 0 18 6 7 12 23 12 36 0 13 6 23 14 23 8 0 17 8 21 18 5 14 4 15 -6 5 -24 -24 -27 -13 -14 52 11 60 32 94 58 95 16 0 6 -32 -12 -37 -13 -3 -17 -11 -14 -24 3 -10 9 -19 14 -19 5 0 9 -5 9 -11 0 -6 -7 -8 -16 -5 -13 5 -14 2 -8 -11 11 -25 7 -73 -7 -90 -17 -20 -18 -62 -2 -56 28 11 11 -15 -19 -31 -20 -9 -26 -16 -15 -16 9 0 17 -7 17 -15 0 -17 -16 -20 -25 -5 -3 6 -11 10 -16 10 -6 0 -3 -7 5 -16 22 -21 20 -45 -3 -51 -20 -5 -38 -33 -21 -33 6 0 10 -7 10 -15 0 -9 -6 -12 -15 -9 -18 7 -21 -22 -2 -29 19 -8 -14 -28 -35 -21 -20 6 -25 -12 -6 -18 8 -3 8 -10 -4 -26 -8 -12 -18 -19 -23 -14 -4 4 -4 -3 -1 -15 6 -17 3 -23 -8 -23 -9 0 -16 -7 -16 -15 0 -8 -4 -15 -10 -15 -5 0 -10 -9 -10 -19 0 -11 -9 -22 -19 -26 -10 -3 -21 -15 -24 -26 -3 -11 -9 -18 -14 -17 -4 2 -8 0 -8 -4 0 -4 -11 -15 -25 -25 -14 -9 -45 -35 -70 -58 -128 -119 -202 -187 -274 -250 l-79 -70 75 -7 c41 -4 105 -18 142 -32 75 -28 186 -92 186 -107 0 -5 -22 4 -48 21 -99 61 -191 92 -285 98 -73 4 -93 2 -122 -14 -19 -10 -35 -21 -35 -24 0 -3 42 -6 93 -6 50 -1 121 -9 157 -18 63 -16 147 -53 156 -68 5 -8 -24 0 -41 12 -5 4 -44 18 -85 31 -60 19 -97 23 -189 24 -83 0 -115 -3 -118 -12 -4 -10 18 -13 89 -13 52 0 120 -7 151 -15 67 -17 167 -66 188 -91 16 -20 14 -19 -71 25 -106 55 -200 75 -312 64 -99 -9 -88 -28 17 -29 53 -1 100 -8 127 -18 54 -22 138 -75 138 -88 0 -5 -19 4 -42 20 -75 51 -148 72 -249 72 -88 0 -91 -1 -154 -41 -36 -22 -65 -44 -65 -48 0 -4 6 -13 13 -20 10 -10 -2 -25 -58 -77 -88 -81 -118 -98 -159 -89 -41 8 -65 8 -98 0 -46 -12 -73 2 -152 76 -63 59 -75 75 -70 95 5 20 -3 29 -57 64 -60 39 -65 40 -148 40 -84 0 -164 -17 -205 -43 -12 -7 -39 -24 -61 -37 -40 -23 -40 -24 -21 -1 11 12 53 38 93 58 66 33 80 36 163 37 105 1 116 17 19 29 -111 13 -219 -11 -336 -75 -29 -16 -53 -26 -53 -22 0 18 83 62 179 95 39 14 83 19 158 19 79 0 104 3 101 13 -7 18 -162 21 -246 3 -39 -8 -99 -26 -134 -40 -52 -21 -59 -22 -40 -6 51 42 261 88 350 76 52 -7 54 4 5 29 -79 39 -222 13 -373 -66 -68 -36 -86 -43 -65 -24 73 63 249 128 332 123 24 -1 43 1 43 5 0 13 -156 152 -221 196 -35 25 -82 57 -104 72 -22 15 -49 37 -59 48 -11 12 -24 21 -30 21 -7 0 -19 12 -29 27 -9 16 -35 48 -57 73 -22 24 -40 50 -40 58 0 7 -13 27 -30 45 -16 18 -30 37 -30 44 0 6 -3 13 -7 15 -14 6 -54 88 -43 88 5 0 10 4 10 10 0 5 -7 7 -15 4 -11 -5 -15 1 -15 25 0 20 -5 31 -14 31 -10 0 -12 7 -8 22 4 15 2 19 -7 13 -10 -5 -11 -2 -6 14 4 13 2 21 -6 21 -8 0 -10 13 -6 40 3 26 1 39 -6 37 -6 -1 -12 9 -14 23 -1 14 -4 40 -7 58 -4 24 -2 31 7 27 6 -4 3 1 -7 9 -11 9 -15 16 -9 16 6 0 13 11 15 25 5 21 2 25 -13 20 -11 -4 -19 -2 -19 4 0 6 4 11 10 11 5 0 6 7 3 17 -4 11 -3 14 5 9 7 -4 12 -1 12 9 0 11 -5 15 -14 12 -21 -8 -27 3 -11 20 10 9 12 20 7 31 -10 20 -9 97 2 129 4 12 2 31 -3 42 -6 11 -7 22 -3 25 15 9 36 120 23 124 -19 6 -12 17 19 30 33 15 41 37 10 29 -11 -3 -20 -1 -20 4 0 5 6 9 14 9 7 0 20 7 27 16 12 15 11 16 -10 9 l-23 -7 22 40 c14 25 28 38 36 35 8 -3 14 -1 14 5 0 6 -5 12 -12 14 -8 3 -7 11 4 27 9 13 14 29 11 36 -3 10 2 12 19 9 13 -2 17 -2 11 2 -16 7 -17 31 -1 40 8 5 9 2 5 -9 -8 -22 2 -22 19 1 16 20 18 46 4 37 -17 -10 -11 11 10 38 11 14 20 28 20 31 0 12 43 55 50 51 4 -3 14 3 21 13 13 15 12 16 -4 3 -9 -7 -17 -9 -17 -4 0 15 41 65 48 59 3 -3 11 3 19 14 8 11 20 20 28 20 8 0 17 5 21 12 4 6 3 8 -4 4 -20 -12 -22 11 -2 29 15 14 20 15 20 4 0 -11 2 -11 9 -1 4 7 14 12 21 10 7 -2 14 2 17 8 2 7 -6 10 -22 9 -14 -2 -25 1 -25 6 0 5 6 9 13 9 8 0 24 9 37 20 13 11 29 20 37 20 8 0 11 5 8 10 -9 15 4 30 21 23 12 -4 12 -8 2 -21 -10 -12 -7 -11 15 2 24 17 41 46 17 31 -5 -3 -10 -2 -10 4 0 5 6 13 13 18 21 13 47 14 47 1 0 -9 3 -9 12 0 8 8 8 15 -2 27 -8 9 -8 15 -2 15 6 0 14 -4 17 -10 3 -5 12 -10 18 -9 8 0 8 2 -1 6 -10 4 -9 9 4 24 18 20 50 27 38 8 -4 -7 -1 -10 7 -7 8 3 13 11 11 17 -1 6 4 12 10 13 54 6 86 19 84 35 0 9 4 18 11 20 7 3 10 -4 6 -19 -4 -19 -1 -17 17 10 21 30 25 32 66 28 26 -3 44 -1 44 4 0 6 -5 10 -12 10 -6 0 -3 9 7 20 10 11 21 17 24 13 9 -12 32 -15 45 -5 16 12 59 16 163 15 67 -1 93 2 96 11 3 8 20 13 40 12 19 0 33 -5 30 -9z m-587 -124 c-10 -10 -19 5 -10 18 6 11 8 11 12 0 2 -7 1 -15 -2 -18z m-401 -283 c3 -5 1 -10 -4 -10 -6 0 -11 5 -11 10 0 6 2 10 4 10 3 0 8 -4 11 -10z m-31 -25 c-4 -8 -11 -15 -16 -15 -6 0 -5 6 2 15 7 8 14 15 16 15 2 0 1 -7 -2 -15z m1901 -592 c25 -16 45 -34 45 -40 0 -7 4 -13 8 -13 15 0 32 -67 38 -146 6 -77 6 -80 -25 -118 -17 -21 -31 -42 -32 -45 0 -3 -2 -15 -5 -26 -2 -11 -6 -33 -9 -50 -13 -81 -28 -125 -51 -146 l-24 -23 -56 27 c-40 20 -59 36 -69 60 -8 17 -14 26 -15 19 0 -7 -5 -10 -11 -7 -7 5 -5 15 5 31 21 31 21 32 -16 42 l-33 9 33 17 c17 9 32 20 32 24 0 4 -17 18 -36 30 l-37 24 59 32 c74 41 111 92 127 174 6 34 15 62 18 62 4 0 21 -16 38 -35 26 -30 31 -44 31 -87 0 -33 -6 -58 -16 -69 -29 -32 -43 -92 -44 -183 l0 -90 -30 29 c-37 35 -40 58 -4 24 l26 -24 -7 25 c-14 44 -24 70 -30 70 -3 0 -18 -19 -35 -42 -33 -45 -39 -78 -14 -78 8 0 12 -4 9 -10 -4 -6 9 -10 31 -10 31 0 36 -3 31 -20 -3 -13 0 -20 8 -20 16 0 39 69 55 160 13 71 22 94 53 127 18 20 19 31 14 98 -10 133 -55 187 -167 198 l-62 7 -145 -76 c-79 -42 -147 -83 -150 -90 -7 -18 -23 -18 -23 0 0 20 49 55 140 101 41 20 77 40 80 44 3 3 12 7 20 9 8 2 22 10 30 17 38 34 149 27 215 -12z m-1499 -8 c32 -19 63 -35 70 -35 6 0 17 -7 24 -15 7 -8 18 -15 26 -15 7 0 35 -14 61 -32 60 -39 57 -37 51 -43 -4 -4 -140 62 -256 127 -48 26 -60 29 -110 22 -124 -14 -160 -55 -171 -192 -7 -85 -7 -88 20 -119 30 -35 32 -39 49 -133 6 -36 14 -72 18 -80 3 -8 6 -18 6 -22 2 -12 16 -21 16 -10 0 7 11 12 25 12 14 0 25 5 25 11 0 6 -7 8 -17 4 -12 -4 -15 -3 -8 4 15 14 47 15 75 4 18 -8 21 -12 10 -16 -8 -2 -36 -11 -63 -20 -26 -9 -53 -14 -60 -11 -28 11 -58 97 -62 180 0 12 -33 63 -53 84 -12 11 -13 32 -9 101 7 88 31 163 61 188 28 24 90 40 152 41 53 0 70 -5 120 -35z m46 -104 c112 -66 139 -88 121 -99 -6 -4 -13 -16 -17 -27 -3 -11 -16 -31 -27 -45 -11 -14 -18 -19 -14 -12 3 6 2 12 -4 12 -5 0 -14 -12 -19 -27 -8 -24 -11 -25 -17 -10 -5 11 1 30 16 52 27 39 44 46 34 14 -5 -15 -4 -19 4 -14 11 6 8 66 -4 86 -3 4 -55 38 -115 74 -61 37 -110 71 -110 77 0 6 9 4 23 -4 12 -8 70 -43 129 -77z m1318 81 c0 -4 -51 -39 -114 -77 -115 -70 -141 -98 -111 -121 8 -6 15 -15 15 -20 0 -5 11 -22 25 -38 27 -32 30 -42 15 -51 -5 -3 -10 -12 -9 -18 0 -9 2 -9 6 1 2 6 12 12 20 12 12 0 14 -7 9 -31 -5 -27 -4 -30 14 -24 11 4 20 2 20 -4 0 -6 -4 -11 -10 -11 -19 0 -10 -38 10 -43 21 -5 29 -47 9 -47 -5 0 -7 5 -4 10 3 6 -7 22 -24 36 -17 14 -31 32 -31 39 0 8 -9 30 -21 49 -11 20 -22 44 -23 53 -2 10 -7 18 -12 18 -16 0 -34 16 -34 28 0 7 7 3 15 -7 9 -11 15 -14 15 -7 0 16 -26 42 -34 34 -3 -3 -9 3 -13 13 -3 10 -10 22 -15 25 -16 11 37 51 157 119 137 78 125 72 125 62z m-1530 -16 c0 -8 -5 -18 -10 -21 -20 -13 21 -137 59 -178 14 -16 50 -41 79 -56 l54 -27 -41 -28 c-23 -16 -41 -30 -41 -32 0 -2 17 -11 38 -21 35 -15 36 -17 12 -20 -49 -8 -54 -12 -37 -31 11 -12 13 -22 7 -32 -5 -8 -10 -10 -10 -5 0 6 -5 3 -11 -5 -7 -10 -12 -11 -15 -4 -12 29 -65 104 -73 104 -5 0 -11 -10 -14 -22 -4 -13 -13 -32 -21 -43 -15 -19 -15 -18 -10 12 11 57 -5 139 -36 185 -17 24 -30 56 -30 71 0 39 24 93 56 122 16 15 22 25 13 25 -11 0 -11 2 1 10 21 14 30 12 30 -4z m1610 4 c0 -5 -4 -10 -10 -10 -5 0 -10 5 -10 10 0 6 5 10 10 10 6 0 10 -4 10 -10z m-1675 -30 c-3 -5 -12 -10 -18 -10 -7 0 -6 4 3 10 19 12 23 12 15 0z m1740 -10 c10 -11 16 -20 13 -20 -3 0 -13 9 -23 20 -10 11 -16 20 -13 20 3 0 13 -9 23 -20z m-1589 -141 c11 -9 39 -28 64 -42 25 -15 39 -27 31 -27 -36 0 -134 80 -150 124 -22 58 -18 65 8 16 16 -30 37 -62 47 -71z m1477 79 c-25 -66 -50 -96 -106 -128 -54 -31 -67 -35 -67 -22 0 5 17 16 38 25 50 22 92 64 120 121 29 58 37 60 15 4z m547 22 c0 -5 -4 -10 -10 -10 -5 0 -10 5 -10 10 0 6 5 10 10 10 6 0 10 -4 10 -10z m-1750 -50 c0 -5 -4 -10 -10 -10 -5 0 -10 5 -10 10 0 6 5 10 10 10 6 0 10 -4 10 -10z m25 -21 c-10 -15 -25 -10 -19 6 4 8 10 12 15 9 5 -3 7 -10 4 -15z m855 11 c0 -5 -5 -10 -11 -10 -5 0 -7 -4 -4 -10 3 -5 2 -10 -4 -10 -17 0 -24 22 -10 31 19 12 29 11 29 -1z m446 -88 c-17 -16 -18 -16 -5 5 7 12 15 20 18 17 3 -2 -3 -12 -13 -22z m-1776 -2 c6 -11 8 -20 6 -20 -3 0 -10 9 -16 20 -6 11 -8 20 -6 20 3 0 10 -9 16 -20z m294 -72 c-11 -11 -18 -23 -16 -26 2 -4 -1 -8 -7 -10 -16 -5 -13 7 11 46 12 20 24 30 26 23 2 -7 -4 -21 -14 -33z m1906 2 c0 -5 -4 -10 -10 -10 -5 0 -10 5 -10 10 0 6 5 10 10 10 6 0 10 -4 10 -10z m-1870 -9 c0 -5 -3 -11 -7 -13 -5 -1 -15 -18 -23 -36 -14 -31 -16 -31 -27 -13 -10 17 -10 19 1 15 8 -3 18 7 26 25 12 29 30 42 30 22z m-763 -57 c-3 -3 -12 -4 -19 -1 -8 3 -5 6 6 6 11 1 17 -2 13 -5z m698 -54 c3 -6 -1 -7 -9 -4 -18 7 -21 14 -7 14 6 0 13 -4 16 -10z m-155 -10 c0 -5 -5 -10 -11 -10 -5 0 -7 5 -4 10 3 6 8 10 11 10 2 0 4 -4 4 -10z m131 -33 c-10 -9 -11 -8 -5 6 3 10 9 15 12 12 3 -3 0 -11 -7 -18z m1859 -257 c0 -5 -4 -10 -10 -10 -5 0 -10 5 -10 10 0 6 5 10 10 10 6 0 10 -4 10 -10z"/> <path d="M393 2370 c-3 -11 -9 -20 -14 -20 -5 0 -9 -5 -9 -12 0 -6 11 -1 25 12 27 25 32 40 14 40 -6 0 -13 -9 -16 -20z"/> <path d="M267 2113 c-4 -3 -7 -11 -7 -17 0 -6 5 -5 12 2 6 6 9 14 7 17 -3 3 -9 2 -12 -2z"/> <path d="M2770 1780 c0 -5 5 -10 11 -10 5 0 7 5 4 10 -3 6 -8 10 -11 10 -2 0 -4 -4 -4 -10z"/> <path d="M1563 1722 c-12 -2 -26 -9 -32 -16 -17 -20 13 -103 59 -164 22 -29 40 -55 40 -57 0 -3 -24 8 -53 25 -30 16 -57 30 -60 30 -16 0 -4 -44 25 -91 l31 -51 -27 -146 c-21 -107 -26 -159 -21 -199 4 -31 1 -83 -6 -123 -12 -71 -29 -85 -29 -25 0 19 -5 46 -11 61 -7 20 -7 42 1 76 10 40 9 66 -10 165 -12 65 -26 133 -30 151 -7 28 -4 41 19 80 29 50 44 102 30 102 -5 0 -30 -13 -56 -29 -26 -17 -49 -28 -51 -26 -2 2 15 30 37 62 22 32 47 79 55 105 19 65 9 72 -92 66 -159 -10 -286 -112 -372 -302 -43 -95 -108 -149 -207 -170 -17 -4 -40 -17 -51 -29 l-21 -22 22 -73 c12 -39 24 -72 27 -72 3 0 16 21 30 48 55 104 398 406 422 370 6 -9 -11 -31 -54 -70 -34 -32 -66 -58 -71 -58 -5 0 21 26 57 57 36 31 64 59 61 61 -8 8 -130 -96 -199 -168 -39 -42 -66 -79 -64 -88 2 -9 28 -30 58 -45 47 -24 63 -28 108 -23 85 10 120 -17 179 -134 16 -30 37 -59 49 -64 20 -9 18 -13 -33 -94 -84 -134 -106 -186 -99 -227 4 -19 11 -35 15 -35 5 0 25 25 45 55 48 72 64 80 31 15 -35 -68 -29 -81 32 -74 26 3 62 1 78 -5 27 -8 25 -9 -26 -10 -41 -1 -60 -6 -72 -19 -21 -23 -21 -32 -2 -32 33 0 68 -27 91 -69 24 -47 48 -81 55 -81 10 0 15 137 18 428 1 34 5 62 10 62 5 0 7 -81 6 -180 -2 -144 1 -194 15 -246 l17 -65 25 33 c14 18 28 43 32 55 10 31 53 63 84 63 l25 0 -23 25 c-19 20 -34 25 -74 26 -45 0 -48 2 -26 11 14 5 49 7 78 5 47 -5 52 -4 52 14 0 11 -9 38 -21 60 -30 61 -18 56 27 -9 22 -31 44 -56 49 -55 6 2 11 21 13 44 3 34 -5 56 -49 132 -28 51 -63 107 -76 126 -21 27 -23 35 -12 42 8 5 17 9 21 9 4 0 25 35 48 78 54 102 74 116 170 117 74 1 104 10 154 50 19 14 18 15 -7 54 -15 22 -71 79 -124 125 -92 81 -124 102 -107 74 4 -7 3 -10 -1 -5 -5 4 -10 17 -12 28 l-3 21 31 -19 c145 -92 353 -292 394 -380 20 -42 23 -39 50 55 18 62 18 63 -1 81 -10 10 -48 26 -84 37 -79 23 -131 71 -174 159 -39 81 -118 192 -158 222 -79 59 -199 96 -275 85z m-115 -47 c3 -3 -12 -5 -34 -5 -22 0 -57 -9 -79 -20 -22 -11 -44 -20 -49 -20 -16 0 -106 -43 -106 -51 0 -4 -23 -31 -51 -60 -47 -49 -49 -50 -23 -13 59 83 79 100 164 136 47 20 94 38 105 41 23 5 65 1 73 -8z m291 -30 c84 -34 105 -50 162 -127 34 -46 7 -30 -31 18 -48 61 -199 132 -285 135 -26 0 -27 2 -10 9 28 13 65 5 164 -35z m-460 -217 c-5 -18 -15 -46 -23 -63 -7 -16 -26 -61 -41 -100 -25 -63 -61 -113 -72 -101 -5 5 84 218 110 264 24 41 38 41 26 0z m542 -130 c54 -126 59 -144 31 -129 -19 10 -122 248 -121 279 1 32 40 -33 90 -150z m-102 6 c5 -76 5 -149 0 -163 -8 -29 -8 -32 -14 89 -6 124 -7 143 -6 184 2 81 13 23 20 -110z m-407 -11 c-2 -82 -8 -155 -13 -163 -7 -10 -9 37 -6 137 4 129 9 173 20 173 2 0 1 -66 -1 -147z m-242 14 c0 -2 -10 -12 -22 -23 l-23 -19 19 23 c18 21 26 27 26 19z m164 -143 c9 -4 21 -16 27 -27 11 -19 9 -19 -27 3 -22 13 -41 25 -43 27 -8 6 27 3 43 -3z m558 -14 c-41 -25 -50 -25 -27 0 10 11 28 20 39 20 17 0 15 -4 -12 -20z m-404 -127 c23 -42 41 -78 39 -80 -4 -4 -117 143 -117 152 0 3 8 5 18 5 11 0 32 -27 60 -77z m312 72 c0 -10 -122 -166 -127 -162 -2 3 13 33 35 68 21 35 41 72 45 82 6 15 47 26 47 12z"/> <path d="M1490 1627 c0 -12 -6 -32 -14 -43 -13 -18 -12 -20 9 -22 37 -3 49 21 30 57 -19 37 -25 39 -25 8z"/> <path d="M1477 1422 c-12 -29 -13 -49 -6 -92 14 -92 20 -122 29 -144 8 -20 9 -20 9 3 1 13 8 60 17 104 14 66 14 86 4 118 -17 51 -34 55 -53 11z"/> <path d="M2686 1221 c-4 -7 -5 -15 -2 -18 9 -9 19 4 14 18 -4 11 -6 11 -12 0z"/> <path d="M1170 1098 c0 -7 3 -23 6 -35 5 -18 10 -21 24 -13 10 6 27 7 37 4 10 -3 3 8 -17 25 -37 33 -50 38 -50 19z"/> <path d="M1803 1098 c-30 -15 -29 -36 2 -44 32 -8 42 1 26 20 -7 8 -10 20 -6 26 7 12 7 12 -22 -2z"/> <path d="M1088 1093 c-53 -5 -57 -12 -34 -67 29 -70 108 -102 177 -71 42 19 45 25 28 42 -9 9 -18 8 -35 -4 -47 -30 -124 5 -124 56 1 25 2 24 18 -9 14 -30 23 -35 55 -38 41 -4 75 14 58 31 -6 6 -15 4 -26 -7 -19 -19 -21 -19 -44 -7 -13 7 -17 20 -15 45 2 20 0 35 -4 34 -4 -1 -28 -3 -54 -5z"/> <path d="M1850 1093 c0 -5 5 -14 11 -20 14 -14 3 -49 -18 -57 -9 -4 -26 0 -39 9 -16 10 -25 11 -30 4 -9 -15 15 -29 51 -29 40 0 54 11 64 45 5 21 9 25 13 14 20 -51 -67 -98 -118 -64 -22 14 -28 15 -35 4 -5 -8 -9 -17 -9 -20 0 -11 66 -39 90 -39 62 0 130 64 130 123 0 25 -3 27 -39 27 -22 0 -46 3 -55 6 -9 3 -16 2 -16 -3z"/> <path d="M955 1079 c-16 -5 -47 -24 -68 -41 -34 -29 -39 -40 -44 -89 -3 -33 -1 -71 6 -92 13 -37 79 -112 144 -161 l37 -28 56 43 c30 23 68 57 82 75 15 17 37 35 50 39 23 7 23 6 8 -23 -9 -17 -22 -34 -28 -38 -10 -6 -11 -4 0 7 6 7 12 19 12 27 0 14 -30 -22 -99 -119 l-32 -46 16 -57 c14 -46 20 -56 33 -51 10 4 36 14 58 22 l41 14 -18 37 c-11 20 -19 44 -19 55 0 21 27 74 69 137 17 25 31 54 31 65 0 20 -5 21 -100 17 -95 -4 -103 -3 -138 22 -42 29 -97 94 -88 104 4 3 13 -4 21 -15 8 -12 36 -35 62 -52 37 -25 57 -31 99 -31 69 0 78 16 14 24 -64 9 -122 61 -139 124 -12 44 -17 46 -66 31z m-16 -106 c50 -73 110 -114 179 -123 56 -7 56 -7 12 -8 -25 -1 -63 7 -86 17 -53 24 -142 119 -144 154 0 14 7 6 39 -40z m-17 -138 c14 -22 42 -55 62 -74 l35 -34 61 32 c33 18 60 30 60 26 0 -11 -95 -65 -115 -65 -28 0 -109 82 -135 135 -11 23 -20 59 -19 81 l1 39 12 -50 c7 -27 24 -68 38 -90z m244 -242 c-11 -11 -17 4 -9 23 7 18 8 18 11 1 2 -10 1 -21 -2 -24z m-49 5 c-3 -8 -6 -5 -6 6 -1 11 2 17 5 13 3 -3 4 -12 1 -19z m33 -28 c0 -5 -5 -10 -11 -10 -5 0 -7 5 -4 10 3 6 8 10 11 10 2 0 4 -4 4 -10z"/> <path d="M1990 1069 c0 -12 -11 -41 -25 -65 -27 -46 -90 -84 -139 -84 -15 0 -25 -4 -21 -10 8 -14 101 -13 128 1 12 6 41 30 64 52 58 56 64 41 9 -20 -60 -67 -85 -76 -195 -72 -113 5 -116 -1 -50 -107 53 -85 62 -131 33 -172 -9 -13 -14 -25 -13 -27 6 -6 112 -46 113 -43 1 2 9 27 18 56 l17 54 -49 66 c-27 37 -63 80 -79 95 -37 35 -40 51 -6 35 13 -6 22 -16 18 -21 -4 -6 0 -8 10 -4 9 3 16 2 14 -4 -1 -6 28 -38 65 -71 l68 -61 39 28 c22 15 62 51 90 80 62 65 78 117 62 191 -10 43 -18 55 -55 81 -23 17 -59 33 -79 37 -34 6 -37 5 -37 -15z m120 -67 c0 -12 -53 -83 -81 -109 -35 -32 -92 -53 -141 -52 -24 1 -32 3 -18 6 14 2 39 6 57 9 34 5 143 96 143 118 0 14 20 36 32 36 4 0 8 -4 8 -8z m18 -138 c-26 -62 -127 -157 -156 -147 -19 7 -122 74 -122 79 0 5 25 -6 91 -40 l56 -29 37 41 c69 76 95 119 98 159 1 28 1 28 5 -2 2 -17 -2 -44 -9 -61z m-273 -244 c23 -44 18 -73 -5 -30 -18 34 -25 60 -15 60 2 0 11 -13 20 -30z"/> <path d="M1713 973 c4 -6 -2 -18 -13 -28 -22 -20 -26 -50 -9 -60 5 -4 18 0 27 9 11 9 23 12 31 6 8 -4 20 -6 28 -3 10 4 7 12 -12 30 -15 16 -31 23 -41 19 -14 -5 -15 -4 -5 8 9 11 9 16 0 22 -7 4 -9 3 -6 -3z"/> <path d="M1280 963 c0 -5 -14 -16 -30 -25 -34 -19 -41 -43 -11 -35 11 3 29 -1 40 -9 23 -17 51 -9 51 15 -1 25 -50 78 -50 54z"/> <path d="M774 872 c3 -5 -2 -41 -10 -81 l-15 -73 26 -34 c47 -61 162 -173 211 -204 55 -35 64 -36 64 -13 0 9 6 24 14 32 11 14 11 24 -1 66 -11 39 -23 56 -51 75 -54 37 -187 171 -206 208 -9 18 -21 32 -27 32 -6 0 -8 -4 -5 -8z m62 -142 c21 -41 69 -104 116 -155 44 -47 75 -85 69 -85 -15 0 -127 106 -183 173 -39 48 -48 65 -48 98 0 21 2 39 4 39 3 0 21 -31 42 -70z"/> <path d="M2202 851 c-14 -32 -128 -148 -202 -205 -35 -28 -47 -46 -57 -81 -11 -46 -10 -50 24 -114 1 -2 19 7 40 20 48 29 142 117 203 190 l46 56 -15 81 c-9 45 -18 82 -21 82 -3 0 -11 -13 -18 -29z m20 -93 c1 -41 -49 -109 -147 -200 -105 -97 -108 -87 -6 21 48 51 111 142 131 190 15 38 20 35 22 -11z"/> <path d="M1231 550 c-24 -17 -49 -30 -54 -30 -6 0 -7 -3 -4 -6 3 -4 33 -8 67 -10 57 -4 60 -3 60 19 0 13 -6 31 -12 40 -12 15 -17 14 -57 -13z"/> <path d="M1717 563 c-13 -12 -8 -45 6 -37 8 6 8 3 -1 -9 -13 -15 -9 -16 32 -15 54 1 66 12 34 29 -12 7 -29 18 -36 26 -15 14 -25 16 -35 6z"/> <path d="M1102 468 c-16 -16 -15 -29 1 -27 39 5 88 -3 102 -17 21 -22 16 -25 -26 -15 -77 20 -99 21 -99 5 0 -18 8 -21 83 -29 42 -5 57 -11 57 -22 0 -9 -6 -13 -14 -10 -7 3 -35 9 -61 13 -38 5 -47 4 -43 -7 3 -9 29 -17 66 -22 38 -6 63 -14 66 -23 4 -11 1 -14 -12 -10 -50 15 -72 17 -72 8 0 -13 24 -22 59 -22 15 0 36 -7 47 -16 18 -14 16 -15 -21 -9 -66 11 -28 -13 45 -28 62 -12 68 -12 127 13 49 20 63 30 63 46 0 27 -70 122 -107 145 -54 34 -236 52 -261 27z"/> <path d="M1729 470 c-25 -4 -60 -15 -76 -24 -43 -22 -113 -112 -113 -145 0 -24 7 -30 63 -52 59 -23 66 -23 127 -11 77 15 110 38 40 28 -42 -6 -44 -6 -26 9 11 8 36 15 57 15 22 0 42 7 50 17 13 15 11 16 -16 9 -16 -4 -38 -9 -49 -13 -12 -3 -17 -1 -14 8 3 8 30 18 61 24 72 13 106 41 37 31 -25 -4 -55 -9 -68 -13 -17 -4 -21 -2 -17 10 6 14 54 27 106 27 24 0 47 25 35 37 -2 2 -32 -3 -67 -11 -35 -8 -66 -12 -69 -9 -10 10 35 33 67 34 18 1 38 3 43 4 6 1 13 3 18 4 4 1 -2 8 -12 16 -21 16 -98 18 -177 5z"/> <path d="M1492 325 c1 -30 5 -55 9 -55 9 0 17 70 11 93 -10 37 -22 14 -20 -38z"/> <path d="M1385 215 c-92 -30 -94 -45 -20 -114 62 -56 67 -58 107 -37 24 13 33 13 67 -1 39 -15 40 -15 78 15 67 53 89 81 77 99 -13 22 -147 63 -199 62 -22 -1 -71 -11 -110 -24z m155 -5 c0 -5 -18 -10 -40 -10 -22 0 -40 5 -40 10 0 6 18 10 40 10 22 0 40 -4 40 -10z"/> <path d="M1270 186 c0 -31 6 -34 13 -6 3 11 1 23 -4 26 -5 3 -9 -6 -9 -20z"/> <path d="M2314 1753 c-17 -51 -71 -123 -92 -123 -5 0 -18 -8 -29 -17 -19 -18 -19 -19 -1 -37 19 -21 25 -56 8 -56 -6 0 -5 -8 2 -19 11 -19 13 -18 35 12 13 18 27 30 30 29 3 -2 10 2 14 10 7 10 9 10 9 -2 0 -13 1 -13 10 0 5 8 10 34 10 58 0 26 4 41 10 37 6 -3 10 0 10 8 0 8 9 22 21 33 16 15 19 26 14 54 -15 88 -25 91 -51 13z"/> <path d="M650 1784 c-14 -35 -12 -80 3 -96 22 -24 34 -53 41 -95 6 -33 13 -44 37 -53 16 -7 29 -16 29 -19 0 -4 8 -16 18 -27 11 -11 22 -26 25 -34 3 -8 4 13 1 46 -3 46 0 65 11 74 23 19 19 27 -27 54 -47 28 -95 93 -104 142 -7 40 -21 44 -34 8z"/> </g> </svg> 